<svg width="19" height="26" viewBox="0 0 19 26" fill="none" xmlns="http://www.w3.org/2000/svg">
<path d="M4.5942 13.091C4.75403 13.0228 4.92591 12.9873 5.09968 12.9867C5.27345 12.9861 5.44558 13.0203 5.6059 13.0873C5.76621 13.1544 5.91147 13.2529 6.03306 13.377C6.15466 13.5011 6.25014 13.6484 6.31385 13.8101C6.37756 13.9717 6.40821 14.1445 6.404 14.3183C6.39978 14.492 6.36078 14.6631 6.28929 14.8215C6.21781 14.9799 6.1153 15.1223 5.98782 15.2404C5.86034 15.3585 5.71048 15.4498 5.5471 15.509C4.6781 15.8514 3.93228 16.4474 3.40666 17.2195C2.88104 17.9916 2.59996 18.904 2.6 19.838V22.1C2.6 22.4448 2.73696 22.7754 2.98076 23.0192C3.22456 23.263 3.55522 23.4 3.9 23.4H14.3C14.6448 23.4 14.9754 23.263 15.2192 23.0192C15.463 22.7754 15.6 22.4448 15.6 22.1V19.9589C15.6001 18.9949 15.3073 18.0537 14.7603 17.2599C14.2134 16.4661 13.4381 15.8573 12.5372 15.5142C12.3728 15.4571 12.2215 15.3677 12.0924 15.2511C11.9632 15.1345 11.8587 14.9931 11.7852 14.8354C11.7116 14.6777 11.6705 14.5068 11.6642 14.3329C11.658 14.159 11.6867 13.9856 11.7486 13.823C11.8106 13.6604 11.9046 13.5119 12.0251 13.3863C12.1455 13.2607 12.2899 13.1606 12.4498 13.0918C12.6096 13.0231 12.7817 12.9871 12.9557 12.9861C13.1297 12.985 13.3021 13.0189 13.4628 13.0858C14.8559 13.6164 16.0549 14.5578 16.9008 15.7853C17.7468 17.0127 18.1999 18.4682 18.2 19.9589V22.1C18.2 23.1343 17.7891 24.1263 17.0577 24.8577C16.3263 25.5891 15.3343 26 14.3 26H3.9C2.86566 26 1.87368 25.5891 1.14228 24.8577C0.410892 24.1263 0 23.1343 0 22.1V19.838C0.000178881 18.3822 0.43846 16.9602 1.25783 15.7568C2.0772 14.5535 3.23973 13.6246 4.5942 13.091ZM9.1 0C10.4791 0 11.8018 0.547856 12.777 1.52304C13.7521 2.49823 14.3 3.82087 14.3 5.2V7.8C14.3 9.17913 13.7521 10.5018 12.777 11.477C11.8018 12.4521 10.4791 13 9.1 13C7.72087 13 6.39823 12.4521 5.42304 11.477C4.44785 10.5018 3.9 9.17913 3.9 7.8V5.2C3.9 3.82087 4.44785 2.49823 5.42304 1.52304C6.39823 0.547856 7.72087 0 9.1 0ZM9.1 2.6C8.41044 2.6 7.74912 2.87393 7.26152 3.36152C6.77393 3.84912 6.5 4.51044 6.5 5.2V7.8C6.5 8.48956 6.77393 9.15088 7.26152 9.63848C7.74912 10.1261 8.41044 10.4 9.1 10.4C9.78956 10.4 10.4509 10.1261 10.9385 9.63848C11.4261 9.15088 11.7 8.48956 11.7 7.8V5.2C11.7 4.51044 11.4261 3.84912 10.9385 3.36152C10.4509 2.87393 9.78956 2.6 9.1 2.6Z" fill="#D2CBA6"/>
</svg>
