<svg width="23" height="23" viewBox="0 0 23 23" fill="none" xmlns="http://www.w3.org/2000/svg">
<path d="M21.5592 13.4939C22.0076 13.0527 22.3144 12.4879 22.4402 11.8716C22.566 11.2552 22.5053 10.6154 22.2657 10.0338C22.0261 9.45212 21.6185 8.95511 21.0951 8.60624C20.5716 8.25737 19.9561 8.07247 19.327 8.07516C19.192 8.07516 19.0364 8.08172 18.8616 8.09531C18.9905 7.98469 19.1067 7.87875 19.2052 7.78078C19.6476 7.33661 19.9489 6.77153 20.0711 6.15661C20.1933 5.54168 20.131 4.90434 19.892 4.32473C19.653 3.74512 19.248 3.24911 18.7278 2.89906C18.2077 2.549 17.5957 2.36053 16.9687 2.35734H16.957C16.54 2.35761 16.1271 2.4406 15.7423 2.60153C15.3576 2.76245 15.0085 2.9981 14.7155 3.29484C14.6166 3.39375 14.5106 3.51 14.4005 3.63844C14.4141 3.46266 14.4211 3.30703 14.4211 3.17297C14.4211 2.33145 14.0868 1.52439 13.4918 0.929341C12.8967 0.334294 12.0896 0 11.2481 0C10.4066 0 9.59954 0.334294 9.0045 0.929341C8.40945 1.52439 8.07516 2.33145 8.07516 3.17297C8.07516 3.3075 8.08219 3.46313 8.09578 3.63844C7.98516 3.51 7.87922 3.39375 7.78078 3.29484C7.48771 2.9981 7.13869 2.76245 6.75392 2.60153C6.36915 2.4406 5.95628 2.35761 5.53922 2.35734H5.53125C4.90528 2.36234 4.29469 2.55181 3.77586 2.90205C3.25702 3.25229 2.85299 3.74774 2.61429 4.32643C2.3756 4.90513 2.31286 5.54135 2.43391 6.15552C2.55495 6.76969 2.85442 7.33453 3.29484 7.77937C3.39328 7.87734 3.50953 7.98328 3.63891 8.09437C3.46359 8.08078 3.30797 8.07375 3.17297 8.07375C2.33144 8.07375 1.52439 8.40804 0.929341 9.00309C0.334294 9.59814 0 10.4052 0 11.2467C0 12.0882 0.334294 12.8953 0.929341 13.4903C1.52439 14.0854 2.33144 14.4197 3.17297 14.4197C3.30703 14.4197 3.46266 14.4127 3.63844 14.3991C3.51 14.5092 3.39375 14.6152 3.29484 14.7141C2.85016 15.1568 2.54705 15.7217 2.42398 16.337C2.30091 16.9523 2.36344 17.5903 2.60362 18.17C2.8438 18.7497 3.2508 19.2449 3.77297 19.5929C4.29513 19.9409 4.90892 20.1259 5.53641 20.1244H5.54812C5.9626 20.125 6.37315 20.044 6.75631 19.886C7.13948 19.7279 7.48775 19.4959 7.78125 19.2033C7.87922 19.1048 7.98516 18.9886 8.09578 18.8597C8.08266 19.0345 8.07562 19.1902 8.07562 19.3252C8.07562 20.1667 8.40992 20.9737 9.00496 21.5688C9.60001 22.1638 10.4071 22.4981 11.2486 22.4981C12.0901 22.4981 12.8972 22.1638 13.4922 21.5688C14.0873 20.9737 14.4216 20.1667 14.4216 19.3252C14.4216 19.1906 14.4145 19.035 14.4009 18.8592C14.5116 18.9881 14.6175 19.1048 14.7159 19.2033C15.0095 19.4964 15.3579 19.7287 15.7414 19.887C16.1248 20.0453 16.5357 20.1264 16.9505 20.1258H16.9622C17.59 20.1284 18.2044 19.9442 18.7272 19.5966C19.25 19.249 19.6576 18.7537 19.8981 18.1737C20.1386 17.5938 20.2011 16.9554 20.0777 16.3398C19.9543 15.7243 19.6506 15.1593 19.2052 14.7169C19.1062 14.618 18.99 14.512 18.8616 14.4019C19.0373 14.4155 19.193 14.4225 19.327 14.4225C19.7419 14.4222 20.1526 14.34 20.5357 14.1806C20.9187 14.0213 21.2665 13.7879 21.5592 13.4939ZM11.25 15.2325C10.462 15.2325 9.69163 14.9988 9.0364 14.561C8.38117 14.1232 7.87048 13.5009 7.56892 12.7729C7.26735 12.0448 7.18845 11.2437 7.34218 10.4708C7.49592 9.69792 7.8754 8.98797 8.43262 8.43075C8.98985 7.87352 9.69979 7.49405 10.4727 7.34031C11.2456 7.18657 12.0467 7.26547 12.7748 7.56704C13.5028 7.86861 14.1251 8.3793 14.5629 9.03452C15.0007 9.68975 15.2344 10.4601 15.2344 11.2481C15.2331 12.3045 14.813 13.3172 14.066 14.0641C13.3191 14.8111 12.3063 15.2313 11.25 15.2325Z" fill="#D2CBA6"/>
</svg>
