<svg width="22" height="23" viewBox="0 0 22 23" fill="none" xmlns="http://www.w3.org/2000/svg">
<path d="M21.5961 12.6098C22.1332 12.0727 22.1332 11.2004 21.5961 10.6633L16.0961 5.16328C15.559 4.62617 14.6867 4.62617 14.1496 5.16328C13.6125 5.70039 13.6125 6.57266 14.1496 7.10977L17.3035 10.2637H8.25C7.48945 10.2637 6.875 10.8781 6.875 11.6387C6.875 12.3992 7.48945 13.0137 8.25 13.0137H17.3035L14.1496 16.1676C13.6125 16.7047 13.6125 17.577 14.1496 18.1141C14.6867 18.6512 15.559 18.6512 16.0961 18.1141L21.5961 12.6141V12.6098ZM6.875 4.76367C7.63555 4.76367 8.25 4.14922 8.25 3.38867C8.25 2.62812 7.63555 2.01367 6.875 2.01367H4.125C1.84766 2.01367 0 3.86133 0 6.13867V17.1387C0 19.416 1.84766 21.2637 4.125 21.2637H6.875C7.63555 21.2637 8.25 20.6492 8.25 19.8887C8.25 19.1281 7.63555 18.5137 6.875 18.5137H4.125C3.36445 18.5137 2.75 17.8992 2.75 17.1387V6.13867C2.75 5.37812 3.36445 4.76367 4.125 4.76367H6.875Z" fill="#D10D0D"/>
</svg>
