<svg width="35" height="31" viewBox="0 0 35 31" fill="none" xmlns="http://www.w3.org/2000/svg">
<path d="M1.95716 11.5649H32.0751C33.1547 11.5649 34.0322 10.571 34.0322 9.34828C34.0322 8.90858 33.9152 8.48092 33.7025 8.11952L29.6871 1.289C29.2138 0.48187 28.4214 0 27.5651 0H6.47245C5.62152 0 4.82376 0.48187 4.35043 1.289L0.329739 8.11349C0.117004 8.48092 0 8.90858 0 9.34226C0 10.571 0.877531 11.5649 1.95716 11.5649ZM3.40376 13.4924V23.1298V27.9485C3.40376 29.5447 4.54721 30.8397 5.95657 30.8397H17.8697C19.2791 30.8397 20.4225 29.5447 20.4225 27.9485V23.1298V13.4924H17.0188V23.1298H6.80751V13.4924H3.40376ZM27.23 13.4924V28.9122C27.23 29.9784 27.9906 30.8397 28.9319 30.8397C29.8733 30.8397 30.6338 29.9784 30.6338 28.9122V13.4924H27.23Z" fill="#A9A9A9"/>
</svg>
